<?xml version="1.0" standalone="no"?>
<!DOCTYPE svg PUBLIC "-//W3C//DTD SVG 1.1//EN" "http://www.w3.org/Graphics/SVG/1.1/DTD/svg11.dtd" >
<svg xmlns="http://www.w3.org/2000/svg">
<metadata>
Created by FontForge 20120731 at Wed Jul 13 16:29:03 2016
 By admin
</metadata>
<defs>
<font id="iconfont" horiz-adv-x="1024" >
  <font-face 
    font-family="iconfont"
    font-weight="500"
    font-stretch="normal"
    units-per-em="1024"
    panose-1="2 0 6 3 0 0 0 0 0 0"
    ascent="896"
    descent="-128"
    x-height="792"
    bbox="0 -212 1117 896.08"
    underline-thickness="50"
    underline-position="-100"
    unicode-range="U+0078-E618"
  />
<missing-glyph horiz-adv-x="374" 
d="M34 0v682h272v-682h-272zM68 34h204v614h-204v-614z" />
    <glyph glyph-name=".notdef" horiz-adv-x="374" 
d="M34 0v682h272v-682h-272zM68 34h204v614h-204v-614z" />
    <glyph glyph-name=".null" horiz-adv-x="0" 
 />
    <glyph glyph-name="nonmarkingreturn" horiz-adv-x="341" 
 />
    <glyph glyph-name="x" unicode="x" horiz-adv-x="1001" 
d="M281 543q-27 -1 -53 -1h-83q-18 0 -36.5 -6t-32.5 -18.5t-23 -32t-9 -45.5v-76h912v41q0 16 -0.5 30t-0.5 18q0 13 -5 29t-17 29.5t-31.5 22.5t-49.5 9h-133v-97h-438v97zM955 310v-52q0 -23 0.5 -52t0.5 -58t-10.5 -47.5t-26 -30t-33 -16t-31.5 -4.5q-14 -1 -29.5 -0.5
t-29.5 0.5h-32l-45 128h-439l-44 -128h-29h-34q-20 0 -45 1q-25 0 -41 9.5t-25.5 23t-13.5 29.5t-4 30v167h911zM163 247q-12 0 -21 -8.5t-9 -21.5t9 -21.5t21 -8.5q13 0 22 8.5t9 21.5t-9 21.5t-22 8.5zM316 123q-8 -26 -14 -48q-5 -19 -10.5 -37t-7.5 -25t-3 -15t1 -14.5
t9.5 -10.5t21.5 -4h37h67h81h80h64h36q23 0 34 12t2 38q-5 13 -9.5 30.5t-9.5 34.5q-5 19 -11 39h-368zM336 498v228q0 11 2.5 23t10 21.5t20.5 15.5t34 6h188q31 0 51.5 -14.5t20.5 -52.5v-227h-327z" />
    <glyph glyph-name="uniE600" unicode="&#xe600;" 
d="M112 656h800v-48h-800v48zM112 416h800v-48h-800v48zM112 160h800v-48h-800v48z" />
    <glyph glyph-name="uniE601" unicode="&#xe601;" 
d="M513 819q-118 0 -218 -58t-158.5 -158t-58.5 -218t58.5 -218t158.5 -158t218 -58t218 58t158 158t58 218t-58 218t-158 158t-218 58zM513 -8q-107 0 -197.5 52.5t-143 143t-52.5 197.5t52.5 197.5t143 143t197.5 52.5t197.5 -52.5t143 -143t52.5 -197.5t-52.5 -197.5
t-143 -143t-197.5 -52.5z" />
    <glyph glyph-name="uniE602" unicode="&#xe602;" horiz-adv-x="1025" 
d="M675 32h-447h-5q-20 4 -36 22q-29 30 -29 86q0 57 -1 582q0 21 7 43q15 51 60 62q3 1 7 1h518h3q26 -2 52 -15q57 -29 57 -91v-536q0 -13 -10 -21l-159 -127q-7 -6 -17 -6zM233 87h432l141 113v522q0 27 -26 40q-15 8 -32 10h-513q-10 -3 -15 -16.5t-6 -21.5t-1 -11v-1
v-54v-133v-160q0 -82 0.5 -148.5t0.5 -86.5q0 -42 19 -53zM488 668h-188q-13 0 -22 9t-9 22t9 22t22 9h188q13 0 22 -9t9 -22t-9 -22t-22 -9zM721 513h-421q-13 0 -22 9t-9 21.5t9 21.5t22 9h421q13 0 22 -9t9 -21.5t-9 -21.5t-22 -9zM721 361h-421q-13 0 -22 9t-9 22t9 22
t22 9h421q13 0 22 -9t9 -22t-9 -22t-22 -9zM631.5 99q-12.5 0 -21.5 9t-9 22v127q0 13 9 22t21 9h131q13 0 22 -9t9 -22t-9 -22t-22 -9h-100v-96q0 -13 -9 -22t-21.5 -9z" />
    <glyph glyph-name="uniE603" unicode="&#xe603;" 
d="M619 -148h-504q-21 0 -36 15.5t-15 37.5v580l251 263h370q24 2 39 -13t12 -37v-300v-46h-60h-10v46v280h-336v-210h-196v-546h485v-70zM960 140h-160v160h-127v-160h-161v-127h160v-161h128v160h160v128z" />
    <glyph glyph-name="uniE604" unicode="&#xe604;" 
d="M949 720q19 19 19 46t-20 47t-47.5 20t-47.5 -20t-20 -47q0 -16 8 -30l-96 -85q-18 14 -41 14q-38 0 -58 -33l-61 47q4 12 4 23q0 28 -19.5 47.5t-47.5 19.5t-47.5 -19.5t-19.5 -47.5v0l-51 -31q-20 31 -56 31q-28 0 -47.5 -19.5t-19.5 -47.5v-3v-2l-74 -70
q-19 17 -45 17q-27 0 -47 -20t-20 -47q0 -26 18 -45v-433h101v435q15 18 15 43q0 17 -8 33l67 63q3 -7 7 -13v-561h101v557q19 19 19 46q0 8 -2 16l46 28q5 -12 13 -21v-626h101v627q0 1 1 1l64 -49q-1 -7 -1 -13q0 -26 18 -46v-520h101v524q15 18 15 42q0 20 -11 37l88 79
v-682h101v688zM209 509.5q0 -18.5 -13.5 -32t-32 -13.5t-32 13.5t-13.5 32t13.5 32t32 13.5t32 -13.5t13.5 -32zM395 634.5q0 -18.5 -13.5 -32t-32 -13.5t-32 13.5t-13.5 32t13.5 32t32 13.5t32 -13.5t13.5 -32zM569 702q0 -19 -13.5 -32t-32.5 -13t-32 13t-13 32t13 32
t32 13t32.5 -13t13.5 -32zM751 597.5q0 -18.5 -13.5 -32t-32 -13.5t-32 13.5t-13.5 32t13.5 32t32 13.5t32 -13.5t13.5 -32zM947 765q0 -19 -13 -32t-32 -13t-32.5 13t-13.5 32t13.5 32.5t32.5 13.5t32 -13.5t13 -32.5zM0 10h1024v-75h-1024v75z" />
    <glyph glyph-name="uniE605" unicode="&#xe605;" 
d="M904 725q0 29 -22.5 51.5t-51.5 22.5h-595q-30 0 -52 -22.5t-22 -51.5v-644q0 -30 22.5 -52t51.5 -22h306h2q12 0 21 8.5t9 21.5q0 12 -8.5 20.5t-20.5 9.5h-323v674h623v-376q-1 -1 -1 -2t1 -2v0q0 -12 9 -20t21 -8t20.5 8.5t9.5 20.5v363zM303 394q-7 0 -12.5 5.5
t-5.5 13t5.5 13t12.5 5.5h360q8 0 13 -5.5t5 -13t-5 -13t-13 -5.5h-360v0zM303 479q-7 0 -12.5 5t-5.5 12.5t5.5 13t12.5 5.5h251q8 0 13 -5.5t5 -13t-5 -12.5t-13 -5h-251v0zM303 310q-7 0 -12.5 5.5t-5.5 13t5.5 12.5t12.5 5h169q8 0 13 -5t5 -12.5t-5 -13t-13 -5.5h-169
v0zM303 563q-7 0 -12.5 5.5t-5.5 13t5.5 12.5t12.5 5h436q7 0 12.5 -5t5.5 -12.5t-5.5 -13t-12.5 -5.5h-436v0zM688 159h-24q-2 0 -2 -2v-12q0 -1 0.5 -1.5t1.5 -0.5h23q2 0 2.5 1t0.5 3v10q0 2 -2 2zM687 188h-23q-2 0 -2 -2v-11q0 -2 2 -2h24q2 0 2 2v10q0 3 -3 3z
M608.5 214q-0.5 -1 -0.5 -3v-5q0 -3 -1 -4q3 1 7 1h30q2 0 2 2v3q0 5 5 7h-40q-2 0 -2.5 -1zM644 159h-25q-2 0 -2 -2v-10q0 -4 3 -4h24q2 0 2 2v12q0 2 -2 2zM644 188h-24q-3 0 -3 -3v-10q0 -2 2 -2h25q2 0 2 2v11q0 2 -2 2zM699 214.5q-1 0.5 -4 0.5h-38q5 -2 5 -7v-3
q0 -2 2 -2h29q4 0 5 -1v2l1 2q1 5 1 7q0 1 -1 1.5zM729.5 341q-66.5 0 -113.5 -47t-47 -113.5t47 -113.5t113.5 -47t113.5 47t47 113.5t-47 113.5t-113.5 47zM714.5 203.5q-2.5 -5.5 -8.5 -5.5h-1q1 -3 1 -8v-49q0 -7 -3 -10t-10 -3h-29q-2 0 -2 -2v-8q0 -4 -2.5 -6t-5.5 -2
t-6 2t-2 6v8q0 2 -2 2h-30q-8 0 -10.5 3t-2.5 10v49q0 5 1 8h-2h-1q-3 0 -5.5 2t-2.5 6v10q0 4 0.5 7t2.5 4.5t4.5 2t6.5 0.5h38q1 0 1 0.5t-0.5 1t-0.5 1.5v2q0 3 2.5 4.5t7 1.5t6.5 -2t4 -8q1 0 1 -0.5t1 -0.5h37q4 0 7 -0.5t5 -1.5t2.5 -3.5t0.5 -5.5q0 -10 -2.5 -15.5z
M760 174q-1 0 -1 -2v-53q0 -4 -2 -6t-5.5 -2t-6 2t-2.5 6v37q0 1 -0.5 1t-0.5 -1q-3 -7 -5.5 -9t-5 -2t-5 1.5t-2.5 5t1 6.5q4 7 7 13.5t5 13.5q4 13 4 16q0 1 -2 1h-7q-3 0 -5.5 2.5t-2.5 6t2.5 6t5.5 2.5h9q2 0 2 2v11q0 4 2.5 6.5t6 2.5t5.5 -2.5t2 -6.5v-11q0 -2 2 -2h3
q0 4 2 6t6 2h27q1 0 1 0.5t-0.5 1.5t-1 2.5t-0.5 4.5q0 2 0.5 3t2 1.5t3.5 1t4 0.5q3 0 5.5 -3.5t5.5 -9.5q0 -2 1 -2h27q3 0 5.5 -2t2.5 -5.5t-2.5 -5.5t-5.5 -2h-38q-1 0 -2 -2l-10 -15l-3 -5q0 -1 4 -1h12v1l2 1q1 1 2 3t3 5q4 7 7 7q2 0 3 -0.5t2.5 -1.5t2 -2.5
t0.5 -2.5q0 -3 -2 -6q-4 -9 -10 -16.5t-12.5 -14t-13 -11.5t-13.5 -9q-3 -1 -6 -1q-4 0 -6 2.5t-2 4.5q0 5 7 9q9 5 17 10q7 6 7 6.5t-2 0.5h-7h-8q-3 0 -4 1q1 -3 1 -5.5t-2.5 -4.5t-5 -2t-5 3t-4.5 6q0 2 -1 2zM853 117.5q-1 -1.5 -3 -2.5q-2 -2 -4 -2.5t-3.5 -0.5t-2.5 2
l-3 4q-3 4 -6 7.5t-4.5 5.5t-2.5 3.5t-2 2.5t-2 1t-1 -1q-7 -5 -13 -9.5t-13 -8.5q-14 -7 -19 -7q-2 0 -4 1l-2 2q-2 1 -2.5 3t-0.5 3q0 4 8 8q20 7 36 21.5t26 33.5q4 7 7 7t6 -2t3 -6q0 -3 -2 -7t-7 -11q-2 -4 -4.5 -7t-5.5 -7v-1v-1q7 -7 11 -11.5t6.5 -7.5t3.5 -5.5
t1 -4t-1 -3zM772 183q0 1 1 3q0 1 1 3t6 9q2 4 4 6.5t4 5.5v2h-2h-11q1 -4 -1.5 -7t-6.5 -3h-6q-1 1 -1.5 -0.5t0.5 -3.5q4 -5 7 -8.5t5 -6.5z" />
    <glyph glyph-name="uniE606" unicode="&#xe606;" 
d="M621 93q-15 0 -25.5 10.5t-10.5 25.5v401q0 15 10.5 25.5t25.5 10.5t26 -10.5t11 -25.5v-401q0 -15 -11 -25.5t-26 -10.5zM403 93q-15 0 -26 10.5t-11 25.5v401q0 15 11 25.5t26 10.5t25.5 -10.5t10.5 -25.5v-401q0 -15 -10.5 -25.5t-25.5 -10.5zM985 712h-182v72
q0 46 -31.5 78t-76.5 32h-365q-45 0 -77 -32t-32 -78v-72h-182q-15 0 -26 -11t-11 -26t11 -25.5t26 -10.5h946q15 0 26 10.5t11 25.5t-11 26t-26 11zM294 784q0 16 10.5 26.5t25.5 10.5h365q15 0 25 -10.5t10 -26.5v-72h-436v72zM767 -126h-510q-45 0 -77 32t-32 78v546
q0 15 10.5 26t25.5 11t26 -11t11 -26v-546q0 -16 10.5 -26.5t25.5 -10.5h510q15 0 25.5 10.5t10.5 26.5v545q0 15 11 25.5t26 10.5t25.5 -10.5t10.5 -25.5v-545q0 -46 -32 -78t-77 -32z" />
    <glyph glyph-name="uniE607" unicode="&#xe607;" horiz-adv-x="1025" 
d="M0 384v70q0 34 21.5 55t55.5 21h140q32 0 53.5 -20t21.5 -52q2 -74 0 -148q0 -32 -21.5 -52t-53.5 -20h-142q-32 0 -53.5 21t-21.5 53v24v24v24zM74 457v-146h145v146h-145zM0 18v22v26v23q0 34 21.5 55t55.5 21h139q33 0 54.5 -21t22.5 -54v-143q-1 -33 -22 -54t-55 -21
h-141q-32 0 -53.5 21t-21.5 53v72zM219 -55v146h-145v-146h145zM713 347h-270q-28 0 -38 23q-7 16 1.5 31.5t25.5 18.5q5 1 12 1h539q35 0 40 -31q3 -14 -5.5 -26.5t-22.5 -15.5q-5 -1 -14 -1h-268zM714 55h270q31 0 39 -26q4 -16 -4.5 -30t-25.5 -17h-10h-170h-200h-169
q-34 0 -41 28q-3 16 6 29t24 15q5 1 12 1h269zM713 713h-271q-30 0 -38 25q-6 17 4.5 32t28.5 16h7h539q35 0 40 -30q3 -15 -6.5 -28t-24.5 -14q-3 -1 -10 -1h-269zM110 729l43 43l111 111q13 12 28 13t26 -10.5t10.5 -26.5t-12.5 -27q-89 -90 -179 -179q-12 -13 -27 -13
t-28 13l-70 70q-12 11 -12 26.5t11 26.5t26 10.5t27 -12.5l44 -44h1z" />
    <glyph glyph-name="uniE608" unicode="&#xe608;" 
d="M980 240q-2 68 -34 117q-26 40 -69 65q-28 15 -61 23q-7 63 -31 116q-31 68 -86 109q-68 50 -167 52h-1q-177 0 -264 -127q-32 -46 -46 -102q-43 -18 -77 -45q-102 -82 -90 -208q7 -70 47 -119q32 -39 83 -62q55 -25 109 -26h1h81q17 0 29 12t12 29t-12 29t-29 12h-80
q-39 1 -77 19q-74 33 -82 114q-5 44 13 80q15 30 44 54q36 29 75 41q26 8 29 35q6 44 37 91q63 91 197 91q72 -1 119 -35q37 -28 60 -76q27 -58 27 -118q-1 -17 10.5 -29t28.5 -13q32 -2 63 -20q57 -33 59 -111q0 -73 -52 -104q-28 -16 -60 -18h-156q-18 2 -33 10
q-23 12 -23 34v176l65 -65q12 -12 29 -12t29 12.5t12 29.5t-12 28l-136 134q-12 11 -29 11t-29 -12l-137 -138q-12 -12 -12 -28.5t12 -28.5t28.5 -12t28.5 12l69 68v-175q0 -74 70 -109q31 -15 63 -17h3h159h1q48 1 95 27q43 24 67 63q30 48 30 115v1z" />
    <glyph glyph-name="uniE609" unicode="&#xe609;" 
d="M493 268h-194q-8 0 -13.5 -6t-5.5 -14t5.5 -13.5t13.5 -5.5h194q8 0 13.5 5.5t5.5 13.5t-5.5 14t-13.5 6zM849 150q-4 2 -8 2h-116v134q6 5 12 9l78 -78q6 -6 13.5 -6t13.5 5.5t6 13.5t-6 14l-78 78q46 57 43 130.5t-56 126.5q-12 12 -26 22v112q0 8 -6 13.5t-14 5.5
h-522q-8 0 -13.5 -5.5t-5.5 -13.5v-590q0 -36 25.5 -61.5t61.5 -25.5h3h3h2h1h504h1h8q36 0 61.5 25t25.5 62v9q0 13 -11 18zM719 340q-43 -42 -103.5 -42t-103 42.5t-42.5 102.5t43 102.5t103 42.5t102.5 -42.5t42.5 -102.5t-42 -103zM416 472q6 4 12 9q-2 -9 -3 -18z
M311 150q-2 -1 -7 -4q-5 -6 -5 -14v-9q0 -20 -14 -34.5t-34 -14.5t-34.5 14.5t-14.5 34.5v571h484v-72q-51 21 -108 9.5t-98 -52.5q-15 -16 -27 -34q-2 30 -24 50.5t-52 20.5t-52 -19.5t-25 -48.5l-53 -53q-5 -6 -5 -14.5t5 -13.5l57 -58q6 -6 14.5 -6t14.5 6l46 46l42 -43
q2 -3 6 -4q6 -34 24 -63h-152q-8 0 -13.5 -5.5t-5.5 -13.5t5.5 -13.5t13.5 -5.5h182q41 -41 97.5 -52t107.5 10v-113h-368q-4 0 -7 -2zM338 534q1 4 0 8q1 15 12.5 25.5t26.5 10.5q16 0 27 -11.5t11 -27.5q0 -15 -10 -26t-25 -13q-5 1 -8 0q-13 2 -22.5 11.5t-11.5 22.5z
M338 472l-19 -20l-29 29l20 19q10 -18 28 -28zM773 74h-3h-4h-1h-1h-441q11 18 14 39h484q-4 -17 -17 -28t-31 -11z" />
    <glyph glyph-name="uniE60A" unicode="&#xe60a;" 
d="M410 817h-315q-13 0 -22 -9.5t-9 -22.5v-333q0 -13 9 -22t22 -9h315q13 0 22 9t9 22v333q0 13 -9 22.5t-22 9.5zM378 484h-251v270h251v-270zM410 313h-315q-13 0 -22 -9t-9 -22v-315q0 -13 9 -22.5t22 -9.5h315q13 0 22 9.5t9 22.5v315q0 13 -9 22t-22 9zM378 -2h-251
v252h251v-252zM913 313h-314q-13 0 -22.5 -9t-9.5 -22v-315q0 -13 9.5 -22.5t22.5 -9.5h314q13 0 22.5 9.5t9.5 22.5v315q0 13 -9.5 22t-22.5 9zM882 -2h-252v252h252v-252zM999 648l-223 222q-9 10 -22 10t-22 -10l-223 -222q-9 -9 -9 -22t9 -23l223 -222q9 -9 22 -9t22 9
l223 222q9 10 9 23t-9 22zM754 448l-178 178l178 178l178 -178z" />
    <glyph glyph-name="uniE60B" unicode="&#xe60b;" 
d="M973 806q-11 3 -22 1.5t-20 -4.5l-9 -3l-871 -429q-19 -13 -19 -25q0 -9 5 -17t9 -12l5 -3l314 -96l19 57l-237 71l723 358l-422 -512v-256h64v237l314 -109q19 -6 32 0q2 1 4 2.5t3.5 3.5t3 3.5t2.5 3.5l2 4q1 2 1.5 3.5t1.5 2.5v2l1 1q121 665 121 672q0 36 -25 44z
M819 134l-262 96l358 436z" />
    <glyph glyph-name="uniE60C" unicode="&#xe60c;" 
d="M731 423l-103 103l51 52q13 13 31 13t31 -13l41 -41q13 -13 13 -31t-13 -31zM431 124l-103 103l280 278l103 -103zM245 39l63 168l102 -102zM708 4z" />
    <glyph glyph-name="uniE60D" unicode="&#xe60d;" 
d="M978 733h-931v65h931v-65zM978 538h-931v-65h931v65zM978 279h-931v-65h931v65zM606 19h-559v-65h559v65z" />
    <glyph glyph-name="uniE60E" unicode="&#xe60e;" 
d="M957 662q-1 1 0.5 7.5t-6 14t-23.5 7.5h-528v0v-41h4q3 0 10.5 -2.5t13 -6.5t10 -13t4.5 -21q-1 -5 -3 -11.5t-13 -17.5t-26 -11q-2 -1 -4.5 -1t-9 1.5t-12 5t-11 12.5t-6.5 22q1 20 12 30.5t21 11.5l10 1v41h-303q-13 0 -21 -8t-9 -16l-1 -8v-136h891v139zM150 566
q-1 0 -5 -0.5t-10.5 1.5t-12.5 5.5t-10.5 12.5t-4.5 22q0 20 10.5 31t21.5 12h11q21 1 31.5 -10t9.5 -22v-11v-5q0 -3 -2 -10t-6 -12.5t-12.5 -9.5t-20.5 -4zM274 566q-1 0 -4.5 -0.5t-9.5 1.5t-12 5.5t-10.5 12.5t-4.5 22q1 21 11.5 31.5t20.5 11.5h10q21 0 32 -11t11 -22
v-10v-5q0 -3 -2 -10.5t-6 -13t-13.5 -9.5t-22.5 -3zM914 523v-569h-807v569h-41v-585q1 -1 0 -7t6 -13t22 -7h835q1 1 7 0t13.5 6t7.5 22v584h-43zM400 650zM516 182l26 -26l-17 -17q-12 -13 4 -30l133 -132q1 -2 3.5 -3t10 -3t13.5 4l66 65q12 15 -3 30l-132 130
q-2 2 -4.5 3.5t-11 3.5t-15.5 -5l-17 -17l-28 27zM497 258l-143 141v43l-84 50l-42 -41l51 -81h45l141 -138zM267 21q0 2 0.5 5.5t6 9.5t15.5 6q3 0 6 -0.5t9 -6t6 -14.5q0 -2 -0.5 -5.5t-6 -9.5t-14.5 -6l-19 -19q3 -3 8.5 -6.5t21 -4t28.5 10.5l255 273q3 -2 9 -5t24 -8
t37 -5q5 0 14.5 0.5t34 8.5t42.5 24q3 2 8 7t16.5 20.5t18 32.5t6.5 43.5t-11 53.5l-91 -88l-77 76l91 87q-3 2 -7 4t-18.5 5t-29.5 3t-37.5 -6.5t-44.5 -20.5q-4 -3 -11 -9t-21.5 -27t-19.5 -43q-2 -7 -4 -18.5t3 -42t23 -54.5l-286 -235q-2 -2 -4.5 -5.5t-6.5 -15t2 -22.5
zM267 21q0 -3 1 -6t6.5 -9t14.5 -6l-19 -19q-25 21 -27 33z" />
    <glyph glyph-name="uniE60F" unicode="&#xe60f;" 
d="M512 769q-104 0 -193 -51.5t-140.5 -140.5t-51.5 -193t51.5 -193t140.5 -140.5t193 -51.5t193 51.5t140.5 140.5t51.5 193t-51.5 193t-140.5 140.5t-193 51.5zM512 63q-65 0 -125 25q-35 15 -65 38q3 3 5 6q36 36 83 56q43 18 90 20q6 -1 12 -1t12 1q47 -2 90 -20
q47 -20 83 -56q2 -3 5 -6q-30 -23 -65 -38q-60 -25 -125 -25zM432 304q-33 33 -33 80t33 80t80 33t80 -33t33 -80t-33 -80q-29 -29 -70 -32h-10h-10q-41 3 -70 32zM750 169q-52 55 -122 82q61 53 61 133q0 73 -52 125t-125 52t-125 -52t-52 -125q0 -80 61 -133
q-70 -27 -122 -82q-36 40 -58 90q-25 60 -25 125t25 125q25 57 69.5 101.5t101.5 69.5q60 25 125 25t125 -25q57 -25 101.5 -69.5t69.5 -101.5q25 -60 25 -125t-25 -125q-22 -50 -58 -90z" />
    <glyph glyph-name="uniE610" unicode="&#xe610;" 
d="M224 33q-39 0 -67 28t-28 67.5t28 67.5t67.5 28t67 -28t27.5 -67.5t-27.5 -67.5t-67.5 -28v0zM510 33q-39 0 -67 28t-28 67.5t28 67.5t67.5 28t67.5 -28t28 -67.5t-28 -67.5t-68 -28v0zM797 33q-40 0 -68 28t-28 67.5t28 67.5t67.5 28t67.5 -28t28 -67.5t-28 -67.5
t-67 -28v0zM797 33z" />
    <glyph glyph-name="uniE611" unicode="&#xe611;" 
d="M64 44h544v-64h-544v64zM800 44h160v-64h-160v64zM768 -83q0 -27 -18.5 -46t-45.5 -19t-45.5 19t-18.5 46v190q0 27 18.5 46t45.5 19t45.5 -19t18.5 -46v-190zM64 332h160v-64h-160v64zM416 332h544v-64h-544v64zM384 205q0 -27 -18.5 -46t-45.5 -19t-45.5 19t-18.5 46
v190q0 27 18.5 46t45.5 19t45.5 -19t18.5 -46v-190zM64 620h544v-64h-544v64zM800 620h160v-64h-160v64zM768 493q0 -27 -18.5 -46t-45.5 -19t-45.5 19t-18.5 46v190q0 27 18.5 46t45.5 19t45.5 -19t18.5 -46v-190z" />
    <glyph glyph-name="uniE612" unicode="&#xe612;" horiz-adv-x="1118" 
d="M657 631q-29 80 -96 130.5t-150 50.5q-109 0 -185 -81.5t-76 -196.5q0 -70 30 -130t82 -97q-117 -49 -189 -159.5t-72 -247.5h73q0 136 86 238t211 117l6 1q6 0 14.5 0.5t18.5 0.5t22.5 -0.5t22.5 -1.5h4q32 -5 63 -16q-25 49 -30 105q-39 -18 -81 -18q-82 0 -139.5 61
t-57.5 147.5t57.5 147.5t139.5 61q65 0 117 -40.5t71 -105.5q27 21 58 34zM856 193q52 37 82 97t30 130q0 116 -77 197.5t-186 81.5q-108 0 -184.5 -81t-76.5 -196q0 -70 30.5 -130t82.5 -98q-117 -49 -189 -159t-72 -247h73q0 136 86 237.5t211 117.5l6 1q5 0 13.5 0.5
t19 0.5t23 -0.5t22.5 -1.5h4q123 -19 205.5 -119t82.5 -234h75q-1 135 -73.5 245t-187.5 158zM705 213q-81 0 -138.5 61t-57.5 148t57.5 148t139 61t139 -61t57.5 -148t-57.5 -148t-139.5 -61z" />
    <glyph glyph-name="uniE613" unicode="&#xe613;" 
d="M572 90v330q0 18 15 25.5t30 0t15 -25.5v-330q0 -24 -24 -28t-33 16q-3 5 -3 12v0zM392 90v330q0 18 15 25.5t30 0t15 -25.5v-330q0 -18 -15 -25.5t-30 0t-15 25.5v0zM902 570h-150v60q0 37 -26 63t-63 26h-301q-37 0 -63.5 -26t-26.5 -63v-60h-150q-18 0 -25.5 -15
t0 -30t25.5 -15h780v60v0zM332 630q0 12 9 21t21 9h301q12 0 20.5 -8.5t8.5 -21.5v-60h-360v60zM722 -119h-420q-37 0 -63.5 26t-26.5 63v450q0 13 9 21.5t21 8.5t21 -8.5t9 -21.5v-450q0 -11 9 -20.5t21 -9.5h420q12 0 21 9.5t9 20.5v449q0 18 15 26t30 0t15 -26v-449
q0 -37 -26.5 -63t-63.5 -26zM722 -119z" />
    <glyph glyph-name="uniE614" unicode="&#xe614;" 
d="M768 208q-47 0 -84 -33l-304 177q4 18 4 30.5t-4 29.5l301 176q37 -34 87 -34q53 0 90.5 37.5t37.5 90.5t-37.5 91t-90.5 38t-90.5 -38t-37.5 -91q0 -12 4 -30l-301 -176q-37 35 -87 35q-53 0 -90.5 -37.5t-37.5 -91t37.5 -91t90.5 -37.5q50 0 87 34l304 -178
q-4 -14 -4 -28q0 -51 36.5 -88t88.5 -37t88.5 37t36.5 88.5t-36.5 88.5t-88.5 37z" />
    <glyph glyph-name="uniE615" unicode="&#xe615;" 
d="M240 464l268 -289l268 289h-536z" />
    <glyph glyph-name="uniE616" unicode="&#xe616;" 
d="M143 211l383 383l384 -383h-767z" />
    <glyph glyph-name="uniE617" unicode="&#xe617;" 
d="M512 756l-286 -286l573 -1zM511 11l-285 285l572 2z" />
    <glyph glyph-name="uniE618" unicode="&#xe618;" 
d="M189 493l323 -260v168h12h39q14 0 41 -3.5t43 -10.5t37 -21.5t33 -34.5t20.5 -52t8.5 -72q0 -75 -52.5 -132.5t-131.5 -72.5q60 8 114 42t88.5 80.5t55 96t20.5 90.5q0 52 -15.5 96t-40 74t-56.5 53.5t-63.5 37t-63.5 22t-53.5 11.5t-35.5 3v159z" />
  </font>
</defs>
</svg>
